<svg xmlns="http://www.w3.org/2000/svg" id="Capa_1" xmlns:xlink="http://www.w3.org/1999/xlink" height="61px" viewBox="0 0 380.5 212">
  <style>
    .st0{fill:#EDEEF0;} .st1{fill:#98BF13;} .st2{fill:#FED700;} .st3{fill:#56ACDE;} .st4{clip-path:url(#SVGID_2_);fill:#FFF482;} .st5{fill:none;stroke:#7B8D9B;stroke-width:8.0797;stroke-miterlimit:10;} .st6{fill:#E96B00;} .st7{fill:#2D73B5;}
  </style>
  <path d="M380.5,125.4c0,46.4-37.6,84.1-84.1,84.1H84.1C37.6,209.5,0,171.8,0,125.4l0,0C0,79,37.6,41.4,84.1,41.4h212.4 C342.9,41.4,380.5,79,380.5,125.4L380.5,125.4z" class="st0"/>
  <circle cx="122.7" cy="85.3" r="8" class="st1"/>
  <circle cx="55.5" cy="80.5" r="4.7" class="st2"/>
  <circle cx="96.6" cy="40.2" r="9.1" class="st3"/>
  <defs>
    <path id="SVGID_1_" d="M152.3,123.3c0,36-29.2,65.2-65.2,65.2c-36,0-65.2-29.2-65.2-65.2c0-3.8-0.9-12.8,1.4-16 c3.2-4.3,6.6,2.1,10.1,3.7c3.6,1.7,8.8,1.7,12.7,0.6c5.1-1.5,8.8-4.6,14.5-4c4.8,0.5,7.3,3.6,11.1,6.1c7.6,4.9,13.2,3.8,20.9,0 c8.1-4.1,13.7-7.1,22-1.4c6.8,4.7,12.5,4.2,19.8,0.7c3.5-1.7,8.2-5.1,12.4-4.5C153.8,109.5,152.3,118.2,152.3,123.3z"/>
  </defs>
  <use fill="#FED700" xlink:href="#SVGID_1_" overflow="visible"/>
  <clipPath id="SVGID_2_">
    <use xlink:href="#SVGID_1_" overflow="visible"/>
  </clipPath>
  <path d="M63.2 64.5H69.3V219.2H63.2z" transform="rotate(-27.29 66.32 141.872)" class="st4"/>
  <path d="M74.8 58.1H78.7V212.79999999999998H74.8z" transform="rotate(-27.29 76.75 135.477)" class="st4"/>
  <path d="M112.8,54.7V16.3h3.9c3.4,0,6.1-2.7,6.1-6.1c0-3.4-2.7-6.1-6.1-6.1H57.5c-3.4,0-6.1,2.8-6.1,6.1 c0,3.4,2.7,6.1,6.1,6.1h3.9v38.4c-28.6,10.5-49,37.9-49,70.1c0,41.2,33.4,74.7,74.7,74.7c41.2,0,74.7-33.4,74.7-74.7 C161.8,92.6,141.4,65.2,112.8,54.7z" class="st5"/>
  <path d="M205.3 125.1l4.3 3.5v37.8h14l4.2 3.6v9.4h-27.9l-3.3-4.2v-50.1H205.3zM197.8 126.3v48.4h25.3v-7.1h-18.2v-41.2H197.8zM256.6 124.7l4.9 2.5 18.6 52.1h-11.4l-3.8-3.3-2.6-7.2h-17.5l-3.9 10.5h-8.5l-4-4 19.3-50.6H256.6zM248.5 125.9L230 174.7h7.7l3.9-10.3h20.6l3.5 10.3h7.6l-17.2-48.7H248.5zM259.8 157.7h-15.6l8.1-21.2L259.8 157.7zM253.9 144.5l-4.4 11.9h8.5L253.9 144.5zM302.6 125.1c14.5 0 17.8 11.5 17.8 16.2 0 2.3-.6 4.7-1.8 6.8-.8 1.3-1.6 2.1-2.5 3 1.9 1.4 6.3 4.5 6.3 12 0 5.3-3.2 16.4-19.2 16.4h-14L286 175v-50H302.6zM287.2 126.3v48.4h13.3c1.4 0 5 0 7.6-.5 5.4-1.1 10.1-5.5 10.1-12.5 0-2.9-.9-6.1-3-8.7-1.2-1.6-2.5-2.3-4.2-3.1 3.9-2.7 4.9-7.9 4.9-10.5 0-4.2-2.1-10.2-9-12.3-2-.6-3.9-.8-6.3-.8H287.2zM299.8 133.1c1.6 0 9.2-.8 9.2 7.4 0 6.9-6.9 6.3-7.7 6.3h-7v-13.6H299.8zM302.4 153.6c1.6 0 8.6 0 8.6 7.6 0 6.6-5.6 6.7-7.8 6.7h-8.9v-14.3H302.4zM299 137.8v7.7h2.7c1.7 0 5.7 0 5.7-4.3 0-3.5-3.1-3.5-4.6-3.5H299zM299 158.3v8.4h4.1c2.1 0 6.3-.3 6.3-4.5 0-3.9-4-3.9-5.3-3.9H299zM353.8 140.6c-.9-.4-1.4-.6-6.9-3.2-1.3-.6-2.6-.7-3.5-.7-2 0-4.9.8-4.9 3.8 0 2.1 1.6 3 6.1 6.9 7.9 6.8 11.2 9.4 11.2 16.4 0 9-7.3 16.3-16.8 16.3-4.1 0-7.1-.9-9.7-1.6l-3.3-5.5v-10.6c1.9 1.2 6.1 4.2 11.2 4.2 3.5 0 5.2-1.7 5.2-3.7 0-2.6-2.9-4.7-6-7.1-7.6-5.8-10.9-8.7-10.9-16.9 0-8.6 6.2-14.6 15.2-14.6 2 0 5.5.4 9.1 1.9l4 3.5V140.6zM349 127.3c-1.7-.6-4.4-1.7-8.2-1.7-7.8 0-13.7 4.8-13.7 12.3 0 4.5 1.8 8 9.3 13.8 3.8 2.9 7.9 6.1 7.9 10.7 0 1.5-.8 5.6-7.1 5.6-4.6 0-7.7-1.7-10-3v7.4c1.8.8 5.7 2.4 10.6 2.4 8.3 0 13.7-6 13.7-13 0-6.3-3.8-10.2-8.5-13.8-6.6-5-9-6.9-9-10.1 0-1.9 1.9-5.3 6.8-5.3 3.7 0 6.6 1.3 8.3 2.1V127.3zM198.3 61.1l4.9 4.2v10.4h-20v46.7h-10.8l-4.1-4.7v-42h-15.2l-4.4-4.6v-10H198.3zM150.1 62.5v8h19.6v46.7h8.2V70.5h20v-8H150.1zM273.9 61.1l7.2 2.9 8 12.6 9.5-15.5h10.8l3.8 3.4-16.4 27.4v30.6h-11.4l-3.5-4.3V91.9l-20.1-30.8H273.9zM264.5 62.5l18.8 29v25.8h8.2V90.7l16.9-28.2h-9.1l-12.3 20.5-13.3-20.5H264.5z" class="st6"/>
  <circle cx="229" cy="92.5" r="15.9" class="st0"/>
  <circle cx="279.5" cy="119.8" r="14.9" class="st0"/>
  <path d="M261.1,90.6l6.5-1.6l-0.7-7l-7.6-0.6c-0.6-1.7-1.4-3.4-2.3-5l5-4.2l-3.7-5.9l-6.9,2.7 c-1.3-1.3-2.7-2.4-4.2-3.4l2.7-5.9l-5.9-3.7l-5.1,5.5c-1.6-0.5-3.3-0.9-4.9-1.2l-0.7-6.4l-7-0.2l-1.3,6.3 c-1.8,0.2-3.6,0.6-5.3,1.1l-3.4-5.4l-6.4,2.9l1.5,6.3c-1.7,1.1-3.4,2.4-4.9,3.8l-4.8-3.7l-5,4.9l4,5.9c-0.9,1.4-1.6,2.9-2.2,4.4 l-7-0.8l-1.7,6.8l6.5,3c-0.2,2-0.2,4,0,5.9l-5.9,1.4l0.7,7l7.2,0.6c0.6,1.5,1.3,3,2.1,4.4l-5,5l4.2,5.5l6.5-3.3 c1.4,1.4,3,2.6,4.6,3.7l-2.6,5.7l5.9,3.7l5-5.4c1.5,0.5,3,0.8,4.5,1.1l0.7,6.5l7,0.2l1.4-6.5c1.8-0.2,3.5-0.6,5.2-1.1l3.4,5.6 l6.4-2.9l-1.5-6.4c1.6-1,3.1-2.1,4.5-3.4l5.3,4.1l5-4.9l-4.3-6.4c0.9-1.5,1.7-3,2.3-4.6l7.1,0.9l1.7-6.8l-6.6-3.1 C261.2,94.1,261.2,92.3,261.1,90.6z M237.2,101.1c-4.7,4.7-12.4,4.7-17.1,0c-4.7-4.7-4.7-12.4,0-17.1c4.7-4.7,12.4-4.7,17.1,0 C241.9,88.6,241.9,96.3,237.2,101.1z" class="st7"/>
  <path d="M234.9 86.2c-3.5-3.5-9-3.5-12.5 0-3.5 3.5-3.5 9 0 12.5 3.5 3.5 9 3.5 12.5 0C238.3 95.3 238.3 89.7 234.9 86.2zM233.2 97.1c-2.5 2.5-6.6 2.5-9.1 0-2.5-2.5-2.5-6.6 0-9.1 2.5-2.5 6.6-2.5 9.1 0C235.7 90.4 235.7 94.5 233.2 97.1zM273.8 113.4c-3.5 3.5-3.5 9 0 12.5 3.5 3.5 9 3.5 12.5 0 3.5-3.5 3.5-9 0-12.5C282.9 110 277.3 110 273.8 113.4zM284.7 124.2c-2.5 2.5-6.6 2.5-9.1 0-2.5-2.5-2.5-6.6 0-9.1 2.5-2.5 6.6-2.5 9.1 0C287.2 117.6 287.2 121.7 284.7 124.2z" class="st7"/>
  <path d="M298,120l4.5-1.9l-0.7-4.6l-5-0.4c-0.5-1.2-1.1-2.4-1.9-3.5l2.6-4.3l-3.3-3.3l-4.3,2.6 c-1.1-0.7-2.3-1.3-3.6-1.8l-0.4-5.1l-4.6-0.7l-2,4.7c-1.3,0.1-2.5,0.2-3.8,0.6l-3.3-3.8l-4.2,2.1l1.1,4.8c-0.6,0.5-1.2,1-1.7,1.5 c-0.4,0.4-0.8,0.8-1.2,1.3l-4.8-1.1l-2.1,4.2l3.6,3.1c-0.4,1.4-0.7,2.9-0.7,4.3l-4.3,1.8l0.7,4.6l4.6,0.4c0.5,1.4,1.1,2.7,2,4 l-2.3,3.9l3.3,3.3l3.8-2.3c1.3,0.9,2.7,1.6,4.1,2.1l0.4,4.4l4.6,0.7l1.7-4.1c1.5-0.1,3-0.3,4.4-0.7l2.9,3.4l4.2-2.1l-1-4.5 c0.5-0.4,1-0.8,1.5-1.3c0.6-0.6,1.1-1.2,1.6-1.8l4.5,1.1l2.1-4.2l-3.6-3.1C297.8,122.9,298,121.5,298,120z M288.7,128.2 c-4.7,4.7-12.4,4.7-17.1,0c-4.7-4.7-4.7-12.4,0-17.1c4.7-4.7,12.4-4.7,17.1,0C293.4,115.8,293.4,123.5,288.7,128.2z" class="st7"/>
</svg>
