<?xml version="1.0" encoding="UTF-8" standalone="no"?>
<!DOCTYPE svg PUBLIC "-//W3C//DTD SVG 1.1//EN" "http://www.w3.org/Graphics/SVG/1.1/DTD/svg11.dtd">
<svg width="100%" height="100%" viewBox="0 0 415 133" version="1.1" xmlns="http://www.w3.org/2000/svg" xmlns:xlink="http://www.w3.org/1999/xlink" xml:space="preserve" style="fill-rule:evenodd;clip-rule:evenodd;stroke-linejoin:round;stroke-miterlimit:1.41421;">
    <g id="Artboard1" transform="matrix(1,0,0,0.959732,-0.494928,-19.92)">
        <rect x="0.495" y="20.756" width="414.281" height="138.22" style="fill:none;"/>
        <g transform="matrix(1,0,0,1.04196,0,-6.67022)">
            <circle cx="33.3" cy="80.1" r="2.8" style="fill:rgb(254,215,0);"/>
        </g>
        <g transform="matrix(1,0,0,1.04196,0,-6.67022)">
            <circle cx="58" cy="55.9" r="5.4" style="fill:rgb(86,172,222);"/>
        </g>
        <g id="SVGID_1_" transform="matrix(1,0,0,1.04196,0,-6.67022)">
            <path d="M91.4,103.8C91.4,125.4 73.9,144.9 52.3,144.9C30.7,144.9 13.2,127.4 13.2,105.8C13.2,103.5 12.6,98.1 14,96.2C15.9,93.6 18,97.4 20.1,98.4C22.3,99.4 25.4,99.4 27.7,98.8C30.8,97.9 33,96 36.4,96.4C39.3,96.7 40.8,98.5 43.1,100.1C47.6,103.1 51,102.4 55.7,100.1C60.6,97.7 63.9,95.8 68.9,99.2C73,102 76.4,101.7 80.8,99.6C82.9,98.6 85.7,96.5 88.2,96.9C92.3,97.5 91.4,100.7 91.4,103.8Z" style="fill:rgb(254,215,0);fill-rule:nonzero;"/>
        </g>
        <g transform="matrix(0.888697,-0.477732,0.458494,0.925985,-49.1865,25.9013)">
            <clipPath id="_clip1">
                <path d="M91.4,103.8C91.4,125.4 73.9,144.9 52.3,144.9C30.7,144.9 13.2,127.4 13.2,105.8C13.2,103.5 12.6,98.1 14,96.2C15.9,93.6 18,97.4 20.1,98.4C22.3,99.4 25.4,99.4 27.7,98.8C30.8,97.9 33,96 36.4,96.4C39.3,96.7 40.8,98.5 43.1,100.1C47.6,103.1 51,102.4 55.7,100.1C60.6,97.7 63.9,95.8 68.9,99.2C73,102 76.4,101.7 80.8,99.6C82.9,98.6 85.7,96.5 88.2,96.9C92.3,97.5 91.4,100.7 91.4,103.8Z"/>
            </clipPath>
            <g clip-path="url(#_clip1)">
                <path d="M37.9,70.5L41.6,70.5L41.6,163.3L37.9,163.3L37.9,70.5Z" style="fill:rgb(255,244,130);fill-rule:nonzero;"/>
            </g>
        </g>
        <g transform="matrix(0.888697,-0.477732,0.458494,0.925985,-46.7302,28.4458)">
            <clipPath id="_clip2">
                <path d="M91.4,103.8C91.4,125.4 73.9,144.9 52.3,144.9C30.7,144.9 13.2,127.4 13.2,105.8C13.2,103.5 12.6,98.1 14,96.2C15.9,93.6 18,97.4 20.1,98.4C22.3,99.4 25.4,99.4 27.7,98.8C30.8,97.9 33,96 36.4,96.4C39.3,96.7 40.8,98.5 43.1,100.1C47.6,103.1 51,102.4 55.7,100.1C60.6,97.7 63.9,95.8 68.9,99.2C73,102 76.4,101.7 80.8,99.6C82.9,98.6 85.7,96.5 88.2,96.9C92.3,97.5 91.4,100.7 91.4,103.8Z"/>
            </clipPath>
            <g clip-path="url(#_clip2)">
                <path d="M44.9,66.7L47.3,66.7L47.3,159.5L44.9,159.5L44.9,66.7Z" style="fill:rgb(255,244,130);fill-rule:nonzero;"/>
            </g>
        </g>
        <g transform="matrix(1,0,0,1.04196,0,-6.67022)">
            <path d="M70.159,31.778L70.318,31.784L70.476,31.794L70.633,31.808L70.789,31.826L70.944,31.848L71.098,31.873L71.251,31.903L71.402,31.936L71.552,31.973L71.7,32.013L71.847,32.057L71.993,32.105L72.136,32.156L72.278,32.21L72.418,32.268L72.556,32.33L72.692,32.394L72.826,32.462L72.959,32.532L73.089,32.606L73.216,32.683L73.342,32.762L73.466,32.845L73.587,32.93L73.706,33.018L73.822,33.109L73.936,33.203L74.048,33.299L74.157,33.397L74.263,33.498L74.368,33.602L74.469,33.708L74.568,33.816L74.664,33.927L74.758,34.039L74.848,34.154L74.936,34.271L75.022,34.391L75.104,34.512L75.183,34.635L75.26,34.76L75.334,34.887L75.404,35.016L75.472,35.147L75.537,35.279L75.598,35.413L75.656,35.549L75.711,35.687L75.763,35.826L75.812,35.966L75.857,36.108L75.899,36.251L75.937,36.396L75.972,36.542L76.004,36.689L76.032,36.837L76.056,36.986L76.077,37.136L76.094,37.288L76.107,37.44L76.116,37.592L76.122,37.746L76.124,37.9L76.122,38.059L76.116,38.218L76.106,38.376L76.092,38.533L76.074,38.689L76.052,38.844L76.027,38.998L75.997,39.151L75.964,39.302L75.927,39.452L75.887,39.6L75.843,39.747L75.795,39.893L75.744,40.036L75.69,40.178L75.632,40.318L75.57,40.456L75.506,40.592L75.438,40.726L75.368,40.859L75.294,40.989L75.217,41.116L75.138,41.242L75.055,41.366L74.97,41.487L74.882,41.606L74.791,41.722L74.697,41.836L74.601,41.948L74.503,42.057L74.402,42.163L74.298,42.268L74.192,42.369L74.084,42.468L73.973,42.564L73.861,42.658L73.746,42.748L73.629,42.836L73.509,42.922L73.388,43.004L73.265,43.083L73.14,43.16L73.013,43.234L72.884,43.304L72.753,43.372L72.621,43.437L72.487,43.498L72.351,43.556L72.213,43.611L72.074,43.663L71.934,43.712L71.792,43.757L71.649,43.799L71.504,43.837L71.358,43.872L71.211,43.904L71.063,43.932L70.914,43.956L70.763,43.977L70.612,43.994L70.46,44.007L70.308,44.016L70.154,44.022L70.124,44.023L70.124,62.938L70.2,62.968L70.405,63.052L70.61,63.137L70.815,63.222L71.019,63.308L71.223,63.395L71.427,63.483L71.629,63.572L71.832,63.661L72.033,63.751L72.235,63.842L72.436,63.934L72.636,64.026L72.836,64.119L73.035,64.213L73.234,64.308L73.432,64.403L73.63,64.5L73.828,64.597L74.024,64.694L74.221,64.793L74.417,64.892L74.612,64.992L74.807,65.093L75.001,65.195L75.194,65.297L75.388,65.4L75.58,65.504L75.772,65.609L75.964,65.714L76.155,65.82L76.345,65.927L76.535,66.034L76.724,66.143L76.913,66.252L77.101,66.362L77.289,66.472L77.476,66.584L77.662,66.696L77.848,66.808L78.034,66.922L78.218,67.036L78.403,67.151L78.586,67.267L78.769,67.384L78.952,67.501L79.134,67.619L79.315,67.737L79.495,67.857L79.675,67.977L79.855,68.098L80.034,68.219L80.212,68.342L80.39,68.465L80.567,68.589L80.743,68.713L80.919,68.838L81.094,68.964L81.268,69.091L81.442,69.218L81.616,69.347L81.788,69.475L81.96,69.605L82.131,69.735L82.302,69.866L82.472,69.998L82.642,70.13L82.81,70.263L82.978,70.397L83.146,70.532L83.313,70.667L83.479,70.803L83.644,70.94L83.809,71.077L83.973,71.215L84.136,71.354L84.299,71.493L84.461,71.633L84.622,71.774L84.783,71.916L84.943,72.058L85.102,72.201L85.261,72.344L85.419,72.489L85.576,72.634L85.732,72.779L85.888,72.926L86.043,73.073L86.197,73.221L86.351,73.369L86.504,73.518L86.656,73.668L86.807,73.819L86.958,73.97L87.108,74.122L87.257,74.274L87.406,74.427L87.554,74.581L87.7,74.736L87.847,74.891L87.992,75.047L88.137,75.203L88.281,75.361L88.424,75.519L88.567,75.677L88.708,75.836L88.849,75.996L88.989,76.157L89.129,76.318L89.267,76.48L89.405,76.642L89.542,76.806L89.678,76.97L89.813,77.134L89.948,77.299L90.082,77.465L90.215,77.631L90.347,77.799L90.479,77.966L90.609,78.135L90.739,78.304L90.868,78.473L90.996,78.644L91.123,78.815L91.25,78.986L91.375,79.159L91.5,79.332L91.624,79.505L91.747,79.679L91.87,79.854L91.991,80.029L92.112,80.206L92.231,80.382L92.35,80.559L92.468,80.737L92.585,80.916L92.702,81.095L92.817,81.275L92.932,81.455L93.045,81.636L93.158,81.818L93.27,82L93.381,82.183L93.491,82.367L93.6,82.551L93.709,82.736L93.816,82.921L93.923,83.107L94.029,83.293L94.133,83.48L94.237,83.668L94.34,83.857L94.442,84.045L94.543,84.235L94.643,84.425L94.743,84.616L94.841,84.807L94.938,84.999L95.035,85.191L95.13,85.385L95.225,85.578L95.319,85.772L95.411,85.967L95.503,86.163L95.594,86.359L95.684,86.555L95.773,86.752L95.861,86.95L95.948,87.148L96.034,87.347L96.119,87.547L96.203,87.747L96.286,87.947L96.368,88.148L96.449,88.35L96.529,88.552L96.608,88.755L96.686,88.958L96.764,89.162L96.84,89.367L96.915,89.572L96.989,89.777L97.062,89.983L97.134,90.19L97.206,90.397L97.276,90.605L97.345,90.813L97.413,91.022L97.48,91.231L97.546,91.441L97.611,91.651L97.675,91.862L97.738,92.074L97.8,92.286L97.861,92.498L97.92,92.711L97.979,92.925L98.037,93.139L98.093,93.353L98.149,93.568L98.204,93.784L98.257,94L98.309,94.217L98.361,94.434L98.411,94.652L98.46,94.87L98.508,95.088L98.556,95.308L98.601,95.527L98.646,95.747L98.69,95.968L98.733,96.189L98.775,96.411L98.815,96.633L98.855,96.855L98.893,97.079L98.93,97.302L98.966,97.526L99.001,97.751L99.035,97.976L99.068,98.201L99.1,98.427L99.13,98.654L99.16,98.88L99.188,99.108L99.215,99.336L99.241,99.564L99.266,99.793L99.29,100.022L99.313,100.252L99.334,100.482L99.354,100.712L99.374,100.943L99.392,101.175L99.409,101.407L99.425,101.639L99.439,101.872L99.453,102.105L99.465,102.339L99.476,102.573L99.486,102.808L99.495,103.043L99.503,103.278L99.509,103.514L99.514,103.75L99.519,103.987L99.522,104.224L99.523,104.462L99.524,104.701L99.523,105.005L99.52,105.309L99.515,105.613L99.508,105.917L99.5,106.221L99.489,106.524L99.477,106.827L99.462,107.13L99.446,107.432L99.428,107.734L99.408,108.036L99.386,108.337L99.362,108.639L99.337,108.939L99.309,109.239L99.28,109.539L99.249,109.839L99.216,110.138L99.181,110.437L99.144,110.735L99.106,111.033L99.065,111.331L99.023,111.628L98.98,111.924L98.934,112.221L98.886,112.516L98.837,112.812L98.786,113.107L98.733,113.401L98.679,113.695L98.622,113.988L98.564,114.281L98.504,114.574L98.443,114.865L98.38,115.157L98.315,115.448L98.248,115.738L98.179,116.028L98.109,116.317L98.037,116.606L97.964,116.894L97.888,117.182L97.812,117.469L97.733,117.755L97.653,118.041L97.571,118.326L97.487,118.611L97.402,118.895L97.315,119.178L97.226,119.461L97.136,119.743L97.044,120.025L96.951,120.306L96.855,120.586L96.759,120.866L96.66,121.145L96.561,121.423L96.459,121.7L96.356,121.977L96.251,122.253L96.145,122.529L96.037,122.804L95.928,123.078L95.817,123.351L95.704,123.624L95.59,123.896L95.474,124.167L95.357,124.437L95.238,124.707L95.118,124.976L94.996,125.244L94.873,125.511L94.748,125.778L94.622,126.043L94.494,126.308L94.365,126.573L94.234,126.836L94.102,127.098L93.968,127.36L93.833,127.621L93.697,127.881L93.558,128.14L93.419,128.398L93.278,128.656L93.135,128.912L92.992,129.168L92.846,129.423L92.7,129.677L92.551,129.93L92.402,130.182L92.251,130.433L92.098,130.684L91.945,130.933L91.79,131.181L91.633,131.429L91.475,131.675L91.316,131.921L91.155,132.166L90.993,132.409L90.83,132.652L90.665,132.894L90.499,133.135L90.332,133.374L90.163,133.613L89.993,133.851L89.821,134.088L89.649,134.323L89.475,134.558L89.299,134.792L89.123,135.024L88.945,135.256L88.765,135.486L88.585,135.716L88.403,135.944L88.22,136.171L88.036,136.397L87.85,136.623L87.663,136.847L87.475,137.069L87.286,137.291L87.095,137.512L86.903,137.731L86.71,137.95L86.516,138.167L86.321,138.383L86.124,138.598L85.926,138.812L85.727,139.024L85.527,139.236L85.325,139.446L85.122,139.655L84.919,139.863L84.713,140.07L84.507,140.275L84.3,140.479L84.091,140.682L83.882,140.884L83.671,141.085L83.459,141.284L83.246,141.482L83.031,141.679L82.816,141.874L82.6,142.068L82.382,142.261L82.163,142.453L81.943,142.643L81.722,142.832L81.5,143.02L81.277,143.206L81.053,143.391L80.828,143.575L80.601,143.757L80.374,143.938L80.146,144.118L79.916,144.296L79.685,144.473L79.454,144.649L79.221,144.823L78.987,144.996L78.753,145.167L78.517,145.337L78.28,145.505L78.042,145.673L77.804,145.838L77.564,146.002L77.323,146.165L77.081,146.326L76.838,146.486L76.595,146.645L76.35,146.802L76.104,146.957L75.858,147.111L75.61,147.263L75.361,147.414L75.112,147.564L74.862,147.712L74.61,147.858L74.358,148.003L74.105,148.146L73.85,148.288L73.595,148.428L73.339,148.566L73.082,148.703L72.825,148.839L72.566,148.973L72.307,149.105L72.046,149.235L71.785,149.364L71.523,149.492L71.26,149.618L70.996,149.742L70.731,149.864L70.465,149.985L70.199,150.104L69.932,150.222L69.664,150.337L69.395,150.451L69.125,150.564L68.855,150.675L68.583,150.784L68.311,150.891L68.038,150.996L67.764,151.1L67.49,151.202L67.215,151.303L66.939,151.401L66.662,151.498L66.384,151.593L66.106,151.687L65.827,151.778L65.547,151.868L65.267,151.956L64.986,152.042L64.704,152.126L64.421,152.209L64.138,152.289L63.854,152.368L63.569,152.445L63.284,152.52L62.997,152.593L62.711,152.665L62.423,152.734L62.135,152.802L61.846,152.867L61.557,152.931L61.267,152.993L60.976,153.053L60.685,153.111L60.393,153.167L60.1,153.221L59.807,153.274L59.513,153.324L59.219,153.372L58.924,153.419L58.629,153.463L58.333,153.505L58.036,153.546L57.739,153.584L57.441,153.62L57.142,153.655L56.844,153.687L56.544,153.717L56.244,153.746L55.944,153.772L55.643,153.796L55.341,153.818L55.039,153.838L54.737,153.856L54.434,153.872L54.13,153.886L53.826,153.897L53.522,153.907L53.217,153.914L52.912,153.92L52.606,153.923L52.3,153.924L51.995,153.923L51.691,153.92L51.387,153.915L51.084,153.908L50.781,153.9L50.479,153.889L50.177,153.877L49.875,153.862L49.574,153.846L49.274,153.828L48.974,153.808L48.674,153.786L48.375,153.762L48.076,153.737L47.778,153.709L47.481,153.68L47.184,153.648L46.887,153.615L46.591,153.581L46.296,153.544L46.001,153.505L45.707,153.465L45.413,153.423L45.12,153.379L44.827,153.333L44.535,153.285L44.244,153.236L43.953,153.185L43.663,153.132L43.373,153.077L43.084,153.021L42.796,152.963L42.508,152.903L42.221,152.841L41.935,152.777L41.649,152.712L41.364,152.645L41.079,152.577L40.796,152.506L40.512,152.434L40.23,152.36L39.948,152.285L39.667,152.208L39.387,152.129L39.107,152.048L38.828,151.966L38.55,151.882L38.272,151.796L37.995,151.709L37.719,151.62L37.444,151.53L37.169,151.437L36.895,151.344L36.622,151.248L36.35,151.151L36.078,151.052L35.808,150.952L35.537,150.85L35.268,150.747L35,150.642L34.732,150.535L34.465,150.427L34.199,150.317L33.934,150.205L33.67,150.092L33.406,149.978L33.143,149.862L32.881,149.744L32.62,149.625L32.36,149.504L32.101,149.382L31.842,149.258L31.585,149.133L31.328,149.006L31.072,148.878L30.817,148.748L30.563,148.616L30.31,148.484L30.058,148.349L29.806,148.214L29.556,148.076L29.306,147.938L29.058,147.798L28.81,147.656L28.563,147.513L28.317,147.368L28.073,147.222L27.829,147.075L27.586,146.926L27.344,146.776L27.103,146.625L26.863,146.472L26.624,146.317L26.386,146.161L26.149,146.004L25.913,145.846L25.678,145.686L25.444,145.524L25.211,145.362L24.979,145.198L24.748,145.032L24.518,144.866L24.289,144.697L24.061,144.528L23.835,144.357L23.609,144.185L23.384,144.012L23.161,143.837L22.938,143.661L22.717,143.484L22.497,143.305L22.277,143.125L22.059,142.944L21.842,142.762L21.626,142.578L21.412,142.393L21.198,142.207L20.985,142.019L20.774,141.83L20.564,141.64L20.355,141.449L20.147,141.257L19.94,141.063L19.734,140.868L19.53,140.672L19.327,140.475L19.124,140.276L18.924,140.076L18.724,139.876L18.525,139.673L18.328,139.47L18.132,139.266L17.937,139.06L17.743,138.853L17.551,138.645L17.36,138.436L17.17,138.226L16.981,138.015L16.793,137.802L16.607,137.588L16.422,137.374L16.238,137.158L16.056,136.941L15.875,136.723L15.695,136.503L15.516,136.283L15.339,136.062L15.163,135.839L14.988,135.616L14.815,135.391L14.643,135.165L14.472,134.939L14.303,134.711L14.134,134.482L13.968,134.252L13.802,134.021L13.638,133.789L13.476,133.556L13.314,133.322L13.154,133.087L12.996,132.851L12.839,132.614L12.683,132.376L12.528,132.137L12.375,131.897L12.224,131.656L12.074,131.414L11.925,131.171L11.777,130.927L11.632,130.683L11.487,130.437L11.344,130.19L11.202,129.942L11.062,129.694L10.924,129.444L10.786,129.194L10.651,128.942L10.516,128.69L10.384,128.437L10.252,128.183L10.122,127.928L9.994,127.672L9.867,127.415L9.742,127.158L9.618,126.899L9.496,126.64L9.375,126.38L9.256,126.119L9.138,125.857L9.022,125.594L8.908,125.33L8.795,125.066L8.683,124.801L8.573,124.535L8.465,124.268L8.358,124L8.253,123.732L8.15,123.463L8.048,123.193L7.948,122.922L7.849,122.65L7.752,122.378L7.656,122.105L7.563,121.831L7.47,121.556L7.38,121.281L7.291,121.005L7.204,120.728L7.118,120.45L7.034,120.172L6.952,119.893L6.871,119.613L6.792,119.333L6.715,119.052L6.64,118.77L6.566,118.487L6.494,118.204L6.423,117.921L6.355,117.636L6.288,117.351L6.223,117.065L6.159,116.779L6.097,116.492L6.037,116.204L5.979,115.915L5.923,115.627L5.868,115.337L5.815,115.047L5.764,114.756L5.715,114.465L5.667,114.173L5.621,113.88L5.577,113.587L5.535,113.293L5.495,112.999L5.456,112.704L5.419,112.409L5.385,112.113L5.352,111.816L5.32,111.519L5.291,111.222L5.263,110.924L5.238,110.625L5.214,110.326L5.192,110.026L5.172,109.726L5.154,109.426L5.138,109.125L5.123,108.823L5.111,108.521L5.1,108.219L5.092,107.916L5.085,107.613L5.08,107.309L5.077,107.005L5.076,106.701L5.077,106.462L5.078,106.224L5.081,105.987L5.085,105.75L5.091,105.513L5.097,105.276L5.105,105.039L5.114,104.803L5.123,104.568L5.134,104.332L5.147,104.097L5.16,103.862L5.175,103.627L5.19,103.393L5.207,103.159L5.225,102.925L5.244,102.691L5.264,102.458L5.285,102.225L5.308,101.993L5.331,101.76L5.356,101.529L5.382,101.297L5.409,101.066L5.437,100.835L5.466,100.604L5.496,100.374L5.527,100.144L5.56,99.915L5.593,99.685L5.628,99.456L5.664,99.228L5.701,99L5.738,98.772L5.777,98.545L5.817,98.317L5.859,98.091L5.901,97.864L5.944,97.638L5.989,97.413L6.034,97.188L6.08,96.963L6.128,96.738L6.177,96.514L6.226,96.291L6.277,96.067L6.329,95.845L6.382,95.622L6.436,95.4L6.49,95.178L6.546,94.957L6.603,94.736L6.661,94.516L6.721,94.296L6.781,94.076L6.842,93.857L6.904,93.638L6.967,93.42L7.031,93.202L7.096,92.985L7.163,92.768L7.23,92.551L7.298,92.335L7.367,92.119L7.438,91.904L7.509,91.689L7.581,91.475L7.654,91.261L7.728,91.048L7.804,90.835L7.88,90.622L7.957,90.41L8.035,90.199L8.114,89.988L8.194,89.777L8.275,89.567L8.357,89.357L8.44,89.148L8.524,88.94L8.609,88.731L8.695,88.524L8.782,88.317L8.87,88.11L8.959,87.904L9.048,87.698L9.139,87.493L9.23,87.288L9.323,87.084L9.416,86.881L9.511,86.678L9.606,86.475L9.702,86.273L9.799,86.072L9.897,85.871L9.996,85.67L10.096,85.47L10.197,85.271L10.299,85.072L10.401,84.874L10.505,84.676L10.609,84.479L10.715,84.282L10.821,84.086L10.928,83.891L11.036,83.696L11.145,83.502L11.255,83.308L11.365,83.115L11.477,82.922L11.589,82.73L11.703,82.538L11.817,82.347L11.932,82.157L12.048,81.967L12.164,81.778L12.282,81.59L12.4,81.402L12.52,81.214L12.64,81.028L12.761,80.841L12.883,80.656L13.006,80.471L13.129,80.287L13.254,80.103L13.379,79.92L13.505,79.737L13.632,79.555L13.759,79.374L13.888,79.194L14.017,79.014L14.147,78.834L14.278,78.656L14.41,78.477L14.543,78.3L14.676,78.123L14.811,77.947L14.946,77.772L15.081,77.597L15.218,77.423L15.355,77.249L15.494,77.076L15.633,76.904L15.772,76.733L15.913,76.562L16.054,76.392L16.196,76.222L16.339,76.053L16.483,75.885L16.628,75.718L16.773,75.551L16.919,75.385L17.065,75.219L17.213,75.055L17.361,74.891L17.51,74.727L17.66,74.565L17.81,74.403L17.962,74.242L18.114,74.081L18.266,73.921L18.42,73.762L18.574,73.604L18.729,73.446L18.885,73.289L19.041,73.133L19.198,72.978L19.356,72.823L19.515,72.669L19.674,72.516L19.834,72.364L19.995,72.212L20.156,72.061L20.318,71.911L20.481,71.761L20.644,71.612L20.809,71.464L20.973,71.317L21.139,71.171L21.305,71.025L21.472,70.88L21.64,70.736L21.808,70.593L21.977,70.45L22.147,70.308L22.317,70.167L22.488,70.027L22.66,69.887L22.832,69.749L23.005,69.611L23.179,69.474L23.353,69.337L23.528,69.202L23.704,69.067L23.88,68.933L24.057,68.8L24.235,68.668L24.413,68.537L24.592,68.406L24.771,68.276L24.951,68.147L25.132,68.019L25.313,67.892L25.495,67.765L25.678,67.64L25.861,67.515L26.045,67.391L26.23,67.268L26.415,67.145L26.6,67.024L26.787,66.903L26.973,66.784L27.161,66.665L27.349,66.547L27.538,66.43L27.727,66.313L27.917,66.198L28.107,66.083L28.298,65.97L28.49,65.857L28.682,65.745L28.875,65.634L29.068,65.524L29.262,65.414L29.457,65.306L29.652,65.199L29.847,65.092L30.043,64.986L30.24,64.882L30.437,64.778L30.635,64.675L30.833,64.573L31.032,64.472L31.232,64.371L31.432,64.272L31.632,64.174L31.833,64.076L32.035,63.98L32.237,63.884L32.44,63.789L32.643,63.696L32.846,63.603L33.051,63.511L33.255,63.42L33.461,63.33L33.666,63.241L33.873,63.153L34.079,63.066L34.286,62.98L34.376,62.943L34.376,44.023L34.341,44.022L34.182,44.016L34.024,44.006L33.867,43.992L33.711,43.974L33.556,43.952L33.402,43.927L33.249,43.897L33.098,43.864L32.948,43.827L32.8,43.787L32.653,43.743L32.507,43.695L32.364,43.644L32.222,43.59L32.082,43.532L31.944,43.47L31.808,43.406L31.674,43.338L31.541,43.268L31.411,43.194L31.284,43.117L31.158,43.038L31.034,42.955L30.913,42.87L30.794,42.782L30.678,42.691L30.564,42.597L30.452,42.501L30.343,42.403L30.237,42.302L30.132,42.198L30.031,42.092L29.932,41.984L29.836,41.873L29.742,41.761L29.652,41.646L29.564,41.529L29.478,41.409L29.396,41.288L29.317,41.165L29.24,41.04L29.166,40.913L29.096,40.784L29.028,40.653L28.964,40.521L28.902,40.387L28.844,40.251L28.789,40.113L28.737,39.974L28.688,39.834L28.643,39.692L28.601,39.549L28.563,39.404L28.528,39.258L28.496,39.111L28.468,38.963L28.444,38.814L28.423,38.663L28.406,38.512L28.393,38.36L28.384,38.208L28.378,38.054L28.376,37.899L28.378,37.742L28.384,37.585L28.395,37.429L28.409,37.274L28.427,37.12L28.45,36.967L28.476,36.815L28.505,36.665L28.539,36.515L28.576,36.368L28.617,36.222L28.661,36.077L28.709,35.934L28.76,35.793L28.814,35.653L28.872,35.516L28.933,35.38L28.997,35.246L29.064,35.114L29.133,34.983L29.206,34.855L29.282,34.729L29.36,34.605L29.442,34.483L29.526,34.363L29.612,34.245L29.702,34.13L29.794,34.016L29.888,33.905L29.985,33.797L30.084,33.69L30.186,33.586L30.29,33.484L30.397,33.385L30.505,33.288L30.616,33.194L30.73,33.102L30.845,33.012L30.963,32.926L31.083,32.842L31.205,32.76L31.329,32.682L31.455,32.606L31.583,32.533L31.714,32.464L31.846,32.397L31.98,32.333L32.116,32.272L32.253,32.214L32.393,32.16L32.534,32.109L32.677,32.061L32.822,32.017L32.968,31.976L33.115,31.939L33.265,31.905L33.415,31.876L33.567,31.85L33.72,31.827L33.874,31.809L34.029,31.795L34.185,31.784L34.342,31.778L34.484,31.776L70.015,31.776L70.159,31.778ZM34.516,36.624L34.471,36.625L34.442,36.626L34.413,36.628L34.384,36.63L34.355,36.634L34.326,36.638L34.298,36.643L34.269,36.648L34.24,36.655L34.212,36.662L34.183,36.67L34.155,36.679L34.126,36.688L34.098,36.699L34.069,36.71L34.041,36.722L34.012,36.734L33.984,36.748L33.956,36.762L33.928,36.777L33.9,36.793L33.872,36.81L33.845,36.827L33.818,36.845L33.791,36.864L33.764,36.883L33.738,36.903L33.713,36.924L33.687,36.946L33.662,36.968L33.638,36.991L33.614,37.014L33.591,37.038L33.568,37.062L33.546,37.087L33.524,37.113L33.503,37.138L33.483,37.164L33.464,37.191L33.445,37.218L33.427,37.245L33.41,37.272L33.393,37.3L33.377,37.328L33.362,37.356L33.348,37.384L33.334,37.412L33.322,37.441L33.31,37.469L33.299,37.498L33.288,37.526L33.279,37.555L33.27,37.583L33.262,37.612L33.255,37.64L33.248,37.669L33.243,37.698L33.238,37.726L33.234,37.755L33.23,37.784L33.228,37.813L33.226,37.842L33.225,37.871L33.224,37.901L33.225,37.933L33.226,37.966L33.228,37.998L33.231,38.03L33.234,38.062L33.238,38.093L33.244,38.124L33.249,38.155L33.256,38.186L33.263,38.216L33.271,38.246L33.28,38.276L33.289,38.306L33.299,38.335L33.31,38.364L33.322,38.393L33.334,38.421L33.347,38.45L33.36,38.477L33.375,38.505L33.39,38.532L33.405,38.559L33.421,38.585L33.438,38.611L33.455,38.637L33.473,38.662L33.492,38.686L33.511,38.71L33.53,38.734L33.551,38.757L33.571,38.78L33.593,38.802L33.614,38.824L33.636,38.845L33.659,38.865L33.682,38.885L33.706,38.904L33.729,38.923L33.754,38.941L33.778,38.958L33.804,38.975L33.829,38.991L33.855,39.007L33.881,39.022L33.908,39.036L33.935,39.049L33.962,39.062L33.99,39.075L34.018,39.086L34.046,39.097L34.075,39.108L34.105,39.117L34.135,39.126L34.165,39.134L34.196,39.142L34.227,39.149L34.259,39.155L34.291,39.16L34.324,39.165L34.358,39.169L34.392,39.172L34.427,39.174L34.463,39.175L34.515,39.176L39.224,39.176L39.224,66.286L37.449,66.945L37.26,67.016L37.072,67.088L36.884,67.161L36.696,67.234L36.509,67.309L36.323,67.384L36.136,67.461L35.951,67.538L35.765,67.616L35.581,67.695L35.396,67.775L35.212,67.855L35.029,67.937L34.846,68.019L34.663,68.102L34.481,68.186L34.299,68.271L34.118,68.357L33.938,68.443L33.757,68.531L33.577,68.619L33.398,68.708L33.219,68.798L33.041,68.889L32.863,68.98L32.686,69.072L32.509,69.166L32.333,69.26L32.157,69.354L31.981,69.45L31.806,69.546L31.632,69.643L31.458,69.741L31.285,69.84L31.112,69.94L30.939,70.04L30.768,70.141L30.596,70.243L30.425,70.346L30.255,70.45L30.085,70.554L29.916,70.659L29.747,70.765L29.579,70.872L29.411,70.979L29.244,71.087L29.078,71.196L28.912,71.306L28.746,71.416L28.581,71.528L28.417,71.64L28.253,71.752L28.09,71.866L27.927,71.98L27.765,72.095L27.603,72.211L27.442,72.327L27.281,72.445L27.121,72.563L26.962,72.681L26.803,72.801L26.645,72.921L26.487,73.042L26.33,73.163L26.174,73.286L26.018,73.409L25.863,73.533L25.708,73.657L25.554,73.782L25.4,73.908L25.247,74.035L25.095,74.162L24.943,74.29L24.792,74.419L24.642,74.548L24.492,74.679L24.342,74.809L24.194,74.941L24.046,75.073L23.898,75.206L23.751,75.339L23.605,75.474L23.46,75.609L23.315,75.744L23.17,75.88L23.027,76.017L22.884,76.155L22.741,76.293L22.6,76.432L22.459,76.572L22.318,76.712L22.178,76.853L22.039,76.994L21.901,77.137L21.763,77.279L21.626,77.423L21.489,77.567L21.353,77.712L21.218,77.857L21.084,78.003L20.95,78.15L20.817,78.297L20.684,78.445L20.553,78.594L20.421,78.743L20.291,78.892L20.161,79.043L20.032,79.194L19.904,79.345L19.776,79.498L19.649,79.651L19.523,79.804L19.398,79.958L19.273,80.113L19.149,80.268L19.025,80.424L18.903,80.58L18.781,80.737L18.659,80.895L18.539,81.053L18.419,81.211L18.3,81.371L18.182,81.531L18.064,81.691L17.947,81.852L17.831,82.014L17.716,82.176L17.601,82.339L17.487,82.502L17.374,82.666L17.261,82.83L17.15,82.995L17.039,83.161L16.929,83.327L16.819,83.493L16.711,83.66L16.603,83.828L16.496,83.996L16.389,84.165L16.284,84.334L16.179,84.504L16.075,84.674L15.972,84.845L15.869,85.016L15.767,85.188L15.667,85.361L15.566,85.534L15.467,85.707L15.369,85.881L15.271,86.055L15.174,86.23L15.078,86.406L14.983,86.582L14.888,86.758L14.794,86.935L14.701,87.112L14.609,87.29L14.518,87.469L14.428,87.648L14.338,87.827L14.249,88.007L14.161,88.187L14.074,88.368L13.988,88.549L13.902,88.731L13.818,88.913L13.734,89.096L13.651,89.279L13.569,89.462L13.487,89.646L13.407,89.831L13.327,90.016L13.248,90.201L13.171,90.387L13.094,90.573L13.017,90.76L12.942,90.947L12.868,91.135L12.794,91.323L12.721,91.511L12.649,91.7L12.579,91.889L12.508,92.079L12.439,92.269L12.371,92.46L12.303,92.651L12.237,92.842L12.171,93.034L12.106,93.226L12.043,93.419L11.98,93.612L11.917,93.805L11.856,93.999L11.796,94.194L11.737,94.388L11.678,94.583L11.621,94.779L11.564,94.974L11.508,95.171L11.453,95.367L11.399,95.564L11.346,95.761L11.294,95.959L11.243,96.157L11.193,96.356L11.144,96.554L11.096,96.754L11.048,96.953L11.002,97.153L10.956,97.353L10.912,97.554L10.868,97.755L10.825,97.956L10.784,98.158L10.743,98.36L10.703,98.562L10.664,98.765L10.626,98.968L10.589,99.172L10.554,99.375L10.519,99.579L10.485,99.784L10.452,99.988L10.419,100.193L10.388,100.399L10.358,100.605L10.329,100.811L10.301,101.017L10.274,101.224L10.248,101.431L10.223,101.638L10.198,101.845L10.175,102.053L10.153,102.262L10.132,102.47L10.112,102.679L10.093,102.888L10.075,103.097L10.058,103.307L10.041,103.517L10.026,103.727L10.012,103.938L9.999,104.149L9.987,104.36L9.976,104.571L9.966,104.783L9.958,104.995L9.95,105.207L9.943,105.419L9.937,105.632L9.932,105.845L9.929,106.059L9.926,106.272L9.924,106.486L9.924,106.699L9.925,106.974L9.927,107.247L9.932,107.52L9.938,107.793L9.946,108.065L9.955,108.337L9.966,108.608L9.979,108.879L9.994,109.149L10.01,109.419L10.028,109.688L10.048,109.957L10.069,110.225L10.092,110.493L10.117,110.761L10.143,111.028L10.171,111.294L10.201,111.56L10.232,111.826L10.265,112.091L10.3,112.355L10.336,112.619L10.374,112.883L10.413,113.146L10.454,113.408L10.497,113.67L10.541,113.931L10.587,114.192L10.634,114.452L10.684,114.712L10.734,114.971L10.786,115.229L10.84,115.487L10.895,115.745L10.952,116.002L11.011,116.258L11.071,116.513L11.132,116.768L11.195,117.023L11.26,117.277L11.326,117.53L11.394,117.783L11.463,118.035L11.534,118.286L11.606,118.537L11.68,118.787L11.755,119.036L11.832,119.285L11.91,119.533L11.99,119.781L12.071,120.028L12.154,120.274L12.238,120.519L12.323,120.764L12.41,121.008L12.499,121.252L12.589,121.495L12.68,121.737L12.773,121.978L12.867,122.219L12.963,122.459L13.06,122.698L13.158,122.937L13.258,123.175L13.36,123.412L13.462,123.648L13.567,123.884L13.672,124.119L13.779,124.353L13.887,124.586L13.997,124.819L14.108,125.051L14.22,125.282L14.334,125.512L14.449,125.742L14.566,125.97L14.683,126.198L14.803,126.425L14.923,126.652L15.045,126.877L15.168,127.102L15.292,127.326L15.418,127.549L15.545,127.771L15.674,127.993L15.803,128.213L15.934,128.433L16.067,128.652L16.2,128.87L16.335,129.087L16.471,129.303L16.608,129.519L16.747,129.733L16.887,129.947L17.028,130.16L17.17,130.372L17.314,130.583L17.459,130.793L17.605,131.002L17.752,131.21L17.901,131.418L18.05,131.624L18.201,131.83L18.353,132.034L18.507,132.238L18.661,132.44L18.817,132.642L18.974,132.843L19.132,133.043L19.291,133.241L19.451,133.439L19.613,133.636L19.776,133.832L19.94,134.027L20.105,134.221L20.271,134.414L20.438,134.606L20.606,134.796L20.776,134.986L20.947,135.175L21.118,135.363L21.291,135.55L21.465,135.736L21.64,135.92L21.816,136.104L21.994,136.287L22.172,136.468L22.351,136.649L22.532,136.828L22.713,137.006L22.896,137.184L23.08,137.36L23.264,137.535L23.45,137.709L23.637,137.882L23.825,138.053L24.014,138.224L24.204,138.394L24.394,138.562L24.586,138.729L24.779,138.895L24.973,139.06L25.168,139.224L25.364,139.387L25.561,139.549L25.759,139.709L25.957,139.868L26.157,140.026L26.358,140.183L26.56,140.339L26.762,140.493L26.966,140.647L27.17,140.799L27.376,140.95L27.582,141.099L27.79,141.248L27.998,141.395L28.207,141.541L28.417,141.686L28.628,141.83L28.84,141.972L29.053,142.113L29.267,142.253L29.481,142.392L29.697,142.529L29.913,142.665L30.13,142.8L30.348,142.933L30.567,143.066L30.787,143.197L31.007,143.326L31.229,143.455L31.451,143.582L31.674,143.708L31.898,143.832L32.123,143.955L32.348,144.077L32.575,144.197L32.802,144.317L33.03,144.434L33.258,144.551L33.488,144.666L33.718,144.78L33.949,144.892L34.181,145.003L34.414,145.113L34.647,145.221L34.881,145.328L35.116,145.433L35.352,145.538L35.588,145.64L35.825,145.742L36.063,145.842L36.302,145.94L36.541,146.037L36.781,146.133L37.022,146.227L37.263,146.32L37.505,146.411L37.748,146.501L37.992,146.59L38.236,146.677L38.481,146.762L38.726,146.846L38.972,146.929L39.219,147.01L39.467,147.09L39.715,147.168L39.964,147.245L40.213,147.32L40.463,147.394L40.714,147.466L40.965,147.537L41.217,147.606L41.47,147.674L41.723,147.74L41.977,147.805L42.232,147.868L42.487,147.929L42.742,147.989L42.998,148.048L43.255,148.105L43.513,148.16L43.771,148.214L44.029,148.266L44.288,148.316L44.548,148.366L44.808,148.413L45.069,148.459L45.33,148.503L45.592,148.546L45.854,148.587L46.117,148.626L46.381,148.664L46.645,148.7L46.909,148.735L47.174,148.768L47.44,148.799L47.706,148.829L47.972,148.857L48.239,148.883L48.507,148.908L48.775,148.931L49.043,148.952L49.312,148.972L49.581,148.99L49.851,149.006L50.121,149.021L50.392,149.034L50.663,149.045L50.935,149.054L51.207,149.062L51.48,149.068L51.753,149.073L52.026,149.075L52.3,149.076L52.572,149.075L52.844,149.072L53.116,149.068L53.387,149.061L53.657,149.052L53.928,149.042L54.197,149.03L54.467,149.016L54.735,149L55.004,148.982L55.272,148.962L55.539,148.941L55.806,148.918L56.073,148.892L56.339,148.866L56.605,148.837L56.87,148.806L57.134,148.774L57.399,148.74L57.662,148.704L57.926,148.666L58.188,148.627L58.45,148.586L58.712,148.543L58.973,148.498L59.234,148.452L59.494,148.403L59.754,148.354L60.013,148.302L60.271,148.249L60.529,148.194L60.787,148.137L61.044,148.078L61.3,148.018L61.556,147.956L61.811,147.893L62.066,147.828L62.32,147.761L62.573,147.692L62.826,147.622L63.079,147.55L63.33,147.477L63.582,147.402L63.832,147.325L64.082,147.247L64.332,147.167L64.58,147.085L64.828,147.002L65.076,146.917L65.323,146.831L65.569,146.743L65.815,146.653L66.059,146.562L66.304,146.47L66.547,146.375L66.79,146.28L67.033,146.182L67.274,146.083L67.515,145.983L67.755,145.881L67.995,145.777L68.234,145.672L68.472,145.566L68.71,145.458L68.946,145.348L69.183,145.237L69.418,145.125L69.652,145.011L69.886,144.895L70.12,144.778L70.352,144.66L70.584,144.54L70.815,144.419L71.045,144.296L71.274,144.172L71.503,144.046L71.731,143.919L71.958,143.791L72.184,143.661L72.41,143.529L72.634,143.397L72.858,143.263L73.081,143.127L73.304,142.99L73.525,142.852L73.746,142.713L73.966,142.572L74.185,142.429L74.403,142.286L74.62,142.141L74.837,141.994L75.052,141.847L75.267,141.698L75.481,141.547L75.694,141.396L75.906,141.243L76.118,141.089L76.328,140.933L76.537,140.776L76.746,140.618L76.954,140.459L77.16,140.298L77.366,140.136L77.571,139.973L77.775,139.809L77.978,139.643L78.18,139.477L78.382,139.308L78.582,139.139L78.781,138.969L78.979,138.797L79.177,138.624L79.373,138.45L79.569,138.275L79.763,138.098L79.956,137.921L80.149,137.742L80.34,137.562L80.531,137.381L80.72,137.199L80.908,137.015L81.096,136.831L81.282,136.645L81.467,136.459L81.652,136.271L81.835,136.082L82.017,135.892L82.198,135.701L82.378,135.508L82.557,135.315L82.735,135.121L82.912,134.925L83.087,134.729L83.262,134.531L83.436,134.333L83.608,134.133L83.779,133.932L83.95,133.731L84.119,133.528L84.287,133.324L84.453,133.12L84.619,132.914L84.784,132.707L84.947,132.499L85.109,132.291L85.27,132.081L85.43,131.871L85.589,131.659L85.746,131.447L85.903,131.233L86.058,131.019L86.212,130.804L86.365,130.588L86.516,130.37L86.667,130.152L86.816,129.934L86.964,129.714L87.111,129.493L87.256,129.272L87.4,129.049L87.543,128.826L87.685,128.602L87.826,128.377L87.965,128.151L88.103,127.924L88.239,127.697L88.375,127.469L88.509,127.239L88.642,127.009L88.774,126.779L88.904,126.547L89.033,126.315L89.16,126.082L89.287,125.848L89.412,125.613L89.535,125.378L89.658,125.142L89.779,124.905L89.899,124.667L90.017,124.429L90.134,124.19L90.25,123.95L90.364,123.71L90.477,123.468L90.588,123.227L90.699,122.984L90.807,122.741L90.915,122.497L91.021,122.252L91.125,122.007L91.228,121.761L91.33,121.514L91.431,121.267L91.53,121.019L91.627,120.771L91.723,120.522L91.818,120.272L91.911,120.022L92.003,119.771L92.093,119.519L92.182,119.267L92.269,119.015L92.355,118.761L92.44,118.508L92.523,118.253L92.604,117.998L92.684,117.743L92.763,117.487L92.84,117.231L92.915,116.973L92.989,116.716L93.062,116.458L93.133,116.199L93.202,115.94L93.27,115.681L93.337,115.421L93.401,115.16L93.465,114.899L93.527,114.638L93.587,114.376L93.645,114.114L93.702,113.851L93.758,113.588L93.812,113.324L93.864,113.06L93.915,112.795L93.964,112.531L94.012,112.265L94.058,111.999L94.102,111.733L94.145,111.467L94.186,111.2L94.226,110.933L94.264,110.665L94.3,110.397L94.334,110.129L94.367,109.861L94.399,109.592L94.429,109.322L94.457,109.053L94.483,108.783L94.508,108.512L94.531,108.242L94.552,107.971L94.572,107.7L94.59,107.429L94.606,107.157L94.621,106.885L94.634,106.613L94.645,106.34L94.654,106.067L94.662,105.794L94.668,105.521L94.673,105.248L94.675,104.974L94.676,104.699L94.676,104.486L94.674,104.273L94.671,104.06L94.668,103.847L94.663,103.635L94.657,103.424L94.65,103.213L94.642,103.002L94.633,102.792L94.623,102.582L94.612,102.373L94.6,102.164L94.587,101.956L94.573,101.748L94.558,101.54L94.542,101.333L94.524,101.127L94.506,100.921L94.487,100.715L94.467,100.51L94.446,100.306L94.423,100.102L94.4,99.898L94.376,99.695L94.351,99.492L94.324,99.29L94.297,99.088L94.269,98.887L94.24,98.686L94.209,98.485L94.178,98.286L94.146,98.086L94.113,97.887L94.079,97.689L94.044,97.491L94.008,97.293L93.971,97.096L93.933,96.9L93.894,96.704L93.854,96.508L93.813,96.313L93.771,96.118L93.729,95.924L93.685,95.731L93.64,95.537L93.595,95.345L93.548,95.152L93.501,94.961L93.452,94.77L93.403,94.579L93.353,94.388L93.302,94.199L93.25,94.009L93.197,93.821L93.143,93.632L93.088,93.444L93.032,93.257L92.975,93.07L92.918,92.884L92.859,92.698L92.8,92.513L92.74,92.328L92.678,92.143L92.616,91.959L92.553,91.776L92.49,91.593L92.425,91.411L92.359,91.229L92.293,91.047L92.225,90.866L92.157,90.686L92.088,90.506L92.018,90.326L91.947,90.147L91.875,89.969L91.802,89.791L91.729,89.614L91.654,89.437L91.579,89.26L91.503,89.084L91.426,88.909L91.348,88.734L91.27,88.559L91.19,88.385L91.11,88.212L91.029,88.039L90.947,87.867L90.864,87.695L90.78,87.523L90.695,87.353L90.61,87.182L90.524,87.012L90.437,86.843L90.349,86.674L90.26,86.506L90.171,86.338L90.08,86.171L89.989,86.004L89.897,85.838L89.805,85.672L89.711,85.507L89.617,85.342L89.521,85.178L89.425,85.014L89.329,84.851L89.231,84.689L89.133,84.527L89.033,84.365L88.933,84.204L88.833,84.044L88.731,83.884L88.629,83.724L88.526,83.565L88.422,83.407L88.317,83.249L88.211,83.092L88.105,82.935L87.998,82.779L87.89,82.623L87.782,82.468L87.673,82.313L87.563,82.159L87.452,82.006L87.34,81.853L87.228,81.7L87.115,81.548L87.001,81.397L86.886,81.246L86.771,81.096L86.655,80.946L86.538,80.797L86.42,80.648L86.302,80.5L86.183,80.353L86.063,80.206L85.943,80.059L85.821,79.914L85.699,79.768L85.577,79.623L85.453,79.479L85.329,79.336L85.204,79.193L85.079,79.05L84.952,78.908L84.825,78.767L84.698,78.626L84.569,78.486L84.44,78.346L84.31,78.207L84.18,78.068L84.049,77.93L83.917,77.793L83.784,77.656L83.651,77.52L83.517,77.384L83.382,77.249L83.247,77.115L83.111,76.981L82.974,76.847L82.837,76.714L82.699,76.582L82.56,76.451L82.42,76.32L82.28,76.189L82.14,76.059L81.998,75.93L81.856,75.801L81.713,75.673L81.57,75.546L81.426,75.419L81.281,75.293L81.136,75.167L80.99,75.042L80.843,74.917L80.696,74.793L80.548,74.67L80.4,74.547L80.251,74.425L80.101,74.304L79.95,74.183L79.799,74.063L79.648,73.943L79.495,73.824L79.342,73.706L79.189,73.588L79.035,73.471L78.88,73.354L78.724,73.238L78.568,73.123L78.412,73.008L78.255,72.894L78.097,72.78L77.939,72.667L77.78,72.555L77.62,72.444L77.46,72.333L77.299,72.222L77.138,72.113L76.976,72.003L76.813,71.895L76.65,71.787L76.486,71.68L76.322,71.573L76.157,71.468L75.992,71.362L75.826,71.258L75.66,71.154L75.492,71.05L75.325,70.948L75.157,70.846L74.988,70.744L74.819,70.644L74.649,70.543L74.478,70.444L74.307,70.345L74.136,70.247L73.964,70.15L73.791,70.053L73.618,69.957L73.445,69.861L73.271,69.766L73.096,69.672L72.921,69.579L72.745,69.486L72.569,69.394L72.392,69.302L72.215,69.211L72.037,69.121L71.859,69.032L71.68,68.943L71.501,68.855L71.321,68.767L71.14,68.68L70.96,68.594L70.778,68.509L70.597,68.424L70.414,68.34L70.232,68.257L70.048,68.174L69.865,68.092L69.68,68.011L69.496,67.93L69.311,67.85L69.125,67.771L68.939,67.692L68.752,67.614L68.565,67.537L68.378,67.461L68.19,67.385L68.002,67.31L67.813,67.236L67.624,67.162L67.434,67.089L67.244,67.017L67.053,66.945L65.276,66.287L65.276,39.176L69.985,39.176L70.033,39.175L70.066,39.174L70.098,39.172L70.13,39.169L70.162,39.166L70.193,39.162L70.224,39.156L70.255,39.151L70.286,39.144L70.316,39.137L70.346,39.129L70.376,39.12L70.406,39.111L70.435,39.101L70.464,39.09L70.493,39.078L70.521,39.066L70.55,39.053L70.577,39.04L70.605,39.025L70.632,39.01L70.659,38.995L70.685,38.979L70.711,38.962L70.737,38.945L70.762,38.927L70.786,38.908L70.81,38.889L70.834,38.87L70.857,38.849L70.88,38.829L70.902,38.807L70.924,38.786L70.945,38.764L70.965,38.741L70.985,38.718L71.004,38.694L71.023,38.671L71.041,38.646L71.058,38.622L71.075,38.596L71.091,38.571L71.107,38.545L71.122,38.519L71.136,38.492L71.149,38.465L71.162,38.438L71.175,38.41L71.186,38.382L71.197,38.353L71.208,38.325L71.217,38.295L71.226,38.265L71.234,38.235L71.242,38.204L71.249,38.173L71.255,38.141L71.26,38.109L71.265,38.076L71.269,38.042L71.272,38.008L71.274,37.973L71.275,37.937L71.276,37.9L71.276,37.867L71.274,37.834L71.272,37.802L71.269,37.77L71.266,37.738L71.262,37.707L71.256,37.676L71.251,37.645L71.244,37.614L71.237,37.584L71.229,37.554L71.22,37.524L71.211,37.494L71.201,37.465L71.19,37.436L71.178,37.407L71.166,37.379L71.153,37.35L71.14,37.323L71.125,37.295L71.11,37.268L71.095,37.241L71.079,37.215L71.062,37.189L71.045,37.164L71.027,37.138L71.008,37.114L70.989,37.09L70.97,37.066L70.949,37.043L70.929,37.02L70.907,36.998L70.886,36.976L70.864,36.955L70.841,36.935L70.818,36.915L70.794,36.896L70.771,36.877L70.746,36.859L70.722,36.842L70.696,36.825L70.671,36.809L70.645,36.793L70.619,36.778L70.592,36.764L70.565,36.751L70.538,36.738L70.51,36.725L70.482,36.714L70.454,36.703L70.425,36.692L70.395,36.683L70.365,36.674L70.335,36.666L70.304,36.658L70.273,36.651L70.241,36.645L70.209,36.64L70.176,36.635L70.142,36.631L70.108,36.628L70.073,36.626L70.037,36.625L69.985,36.624L34.516,36.624Z" style="fill:rgb(123,141,155);"/>
        </g>
        <g transform="matrix(1,0,0,1.04196,0,-6.67022)">
            <path d="M51.5,76.1L51.5,84.3L71.5,84.3L71.5,132.1L80,132.1L80,84.3L100.5,84.3L100.5,76.1L51.5,76.1Z" style="fill:rgb(237,238,239);fill-rule:nonzero;"/>
        </g>
        <g transform="matrix(1,0,0,1.04196,0,-6.67022)">
            <path d="M100.4,74.9L105.3,79.1L105.3,89.5L85.3,89.5L85.3,136.2L74.5,136.2L70.4,131.5L70.4,89.5L55.2,89.5L50.8,84.9L50.8,74.9L100.4,74.9ZM52.2,76.3L52.2,84.3L71.8,84.3L71.8,131L80,131L80,84.3L100,84.3L100,76.3L52.2,76.3ZM176,74.9L183.2,77.8L191.2,90.4L200.7,74.9L211.5,74.9L215.3,78.3L198.9,105.7L198.9,136.3L187.5,136.3L184,132L184,105.7L163.9,74.9L176,74.9ZM166.6,76.3L185.4,105.3L185.4,131L193.6,131L193.6,104.5L210.5,76.3L201.4,76.3L189.1,96.8L175.8,76.3L166.6,76.3ZM231.6,74.9L236.4,78.8L236.4,121.5L252.2,121.5L256.9,125.6L256.9,136.3L225.3,136.3L221.5,131.6L221.5,74.9L231.6,74.9ZM223,76.3L223,131L251.6,131L251.6,122.9L231,122.9L231,76.3L223,76.3ZM289.5,74.5L295,77.4L316,136.4L303.1,136.4L298.9,132.6L296,124.4L276.2,124.4L271.8,136.3L262.2,136.3L257.6,131.7L279.4,74.4L289.5,74.4L289.5,74.5ZM280.4,75.9L259.4,131L268.1,131L272.5,119.3L295.8,119.3L299.8,131L308.4,131L289,75.9L280.4,75.9ZM293.1,111.7L275.4,111.7L284.6,87.7L293.1,111.7ZM286.4,96.9L281.4,110.4L291,110.4L286.4,96.9ZM341.5,74.9C357.9,74.9 361.6,87.9 361.6,93.3C361.6,95.9 360.9,98.6 359.6,101C358.7,102.5 357.8,103.4 356.7,104.3C358.9,105.8 363.9,109.4 363.9,117.8C363.9,123.8 360.3,136.3 342.2,136.3L326.4,136.3L322.7,131.4L322.7,74.9L341.5,74.9ZM324.1,76.3L324.1,131L339.1,131C340.7,131 344.8,131 347.7,130.4C353.8,129.2 359.1,124.2 359.1,116.2C359.1,112.9 358.1,109.3 355.8,106.4C354.4,104.6 352.9,103.8 351.1,102.9C355.5,99.8 356.6,93.9 356.6,91C356.6,86.3 354.2,79.5 346.4,77.1C344.1,76.4 342,76.2 339.2,76.2L324.1,76.2L324.1,76.3ZM338.4,83.9C340.2,83.9 348.8,83 348.8,92.2C348.8,99.9 341.1,99.3 340.1,99.3L332.2,99.3L332.2,83.9L338.4,83.9ZM341.3,107.2C343.1,107.2 351,107.2 351,115.8C351,123.3 344.6,123.4 342.2,123.4L332.1,123.4L332.1,107.3L341.3,107.3L341.3,107.2ZM337.4,89.2L337.4,98L340.5,98C342.4,98 346.9,98 346.9,93.2C346.9,89.3 343.4,89.3 341.7,89.3L337.4,89.3L337.4,89.2ZM337.4,112.5L337.4,122L342,122C344.4,122 349.2,121.7 349.2,116.9C349.2,112.5 344.6,112.5 343.2,112.5L337.4,112.5ZM399.4,92.5C398.4,92.1 397.8,91.8 391.6,88.9C390.1,88.2 388.7,88.1 387.6,88.1C385.3,88.1 382.1,89 382.1,92.3C382.1,94.7 383.9,95.7 389,100C397.9,107.7 401.7,110.6 401.7,118.6C401.7,128.8 393.5,137 382.7,137C378.1,137 374.6,136 371.8,135.2L368,129L368,117C370.1,118.4 374.9,121.7 380.7,121.7C384.7,121.7 386.6,119.8 386.6,117.5C386.6,114.6 383.3,112.2 379.8,109.5C371.2,102.9 367.5,99.6 367.5,90.3C367.5,80.6 374.5,73.8 384.7,73.8C387,73.8 390.9,74.2 395,75.9L399.5,79.9L399.5,92.5L399.4,92.5ZM394,77.4C392,76.7 389,75.4 384.7,75.4C375.9,75.4 369.2,80.9 369.2,89.3C369.2,94.4 371.2,98.4 379.7,104.9C383.9,108.2 388.6,111.8 388.6,117C388.6,118.7 387.7,123.3 380.5,123.3C375.3,123.3 371.8,121.4 369.2,120L369.2,128.4C371.2,129.3 375.6,131.1 381.2,131.1C390.6,131.1 396.7,124.3 396.7,116.4C396.7,109.3 392.4,104.8 387.1,100.7C379.7,95 376.9,92.9 376.9,89.3C376.9,87.1 379,83.3 384.6,83.3C388.8,83.3 392.1,84.8 394,85.7L394,77.4L394,77.4Z" style="fill:rgb(233,107,0);fill-rule:nonzero;"/>
        </g>
        <g transform="matrix(1,0,0,1.04196,0,-6.67022)">
            <circle cx="131.1" cy="106.3" r="15.9" style="fill:rgb(237,238,240);"/>
        </g>
        <g transform="matrix(1,0,0,1.04196,0,-6.67022)">
            <circle cx="181.6" cy="133.6" r="14.9" style="fill:rgb(237,238,240);"/>
        </g>
        <g transform="matrix(1,0,0,1.04196,0,-6.67022)">
            <path d="M163.2,104.3L169.7,102.7L169,95.7L161.4,95.1C160.8,93.4 160,91.7 159.1,90.1L164.1,85.9L160.4,80L153.5,82.7C152.2,81.4 150.8,80.3 149.3,79.3L152,73.4L146.1,69.7L141,75.2C139.4,74.7 137.7,74.3 136.1,74L135.4,67.6L128.4,67.4L127.1,73.7C125.3,73.9 123.5,74.3 121.8,74.8L118.4,69.4L112,72.3L113.5,78.6C111.8,79.7 110.1,81 108.6,82.4L103.8,78.7L98.8,83.6L102.8,89.5C101.9,90.9 101.2,92.4 100.6,93.9L93.6,93.1L91.9,99.9L98.4,102.9C98.2,104.9 98.2,106.9 98.4,108.8L92.5,110.2L93.2,117.2L100.4,117.8C101,119.3 101.7,120.8 102.5,122.2L97.5,127.2L101.7,132.7L108.2,129.4C109.6,130.8 111.2,132 112.8,133.1L110.2,138.8L116.1,142.5L121.1,137.1C122.6,137.6 124.1,137.9 125.6,138.2L126.3,144.7L133.3,144.9L134.7,138.4C136.5,138.2 138.2,137.8 139.9,137.3L143.3,142.9L149.7,140L148.2,133.6C149.8,132.6 151.3,131.5 152.7,130.2L158,134.3L163,129.4L158.7,123C159.6,121.5 160.4,120 161,118.4L168.1,119.3L169.8,112.5L163.2,109.4C163.3,107.9 163.3,106.1 163.2,104.3ZM139.3,114.8C134.6,119.5 126.9,119.5 122.2,114.8C117.5,110.1 117.5,102.4 122.2,97.7C126.9,93 134.6,93 139.3,97.7C144,102.4 144,110.1 139.3,114.8Z" style="fill:rgb(45,115,181);fill-rule:nonzero;"/>
        </g>
        <g transform="matrix(1,0,0,1.04196,0,-6.67022)">
            <path d="M137,100C133.5,96.5 128,96.5 124.5,100C121,103.5 121,109 124.5,112.5C128,116 133.5,116 137,112.5C140.4,109.1 140.4,103.5 137,100ZM135.3,110.8C132.8,113.3 128.7,113.3 126.2,110.8C123.7,108.3 123.7,104.2 126.2,101.7C128.7,99.2 132.8,99.2 135.3,101.7C137.8,104.2 137.8,108.3 135.3,110.8ZM175.9,127.2C172.4,130.7 172.4,136.2 175.9,139.7C179.4,143.2 184.9,143.2 188.4,139.7C191.9,136.2 191.9,130.7 188.4,127.2C185,123.7 179.4,123.7 175.9,127.2ZM186.8,138C184.3,140.5 180.2,140.5 177.7,138C175.2,135.5 175.2,131.4 177.7,128.9C180.2,126.4 184.3,126.4 186.8,128.9C189.3,131.4 189.3,135.5 186.8,138Z" style="fill:rgb(45,115,181);fill-rule:nonzero;"/>
        </g>
        <g transform="matrix(1,0,0,1.04196,0,-6.67022)">
            <path d="M200.1,133.8L204.6,131.9L203.9,127.3L198.9,126.9C198.4,125.7 197.8,124.5 197,123.4L199.6,119.1L196.3,115.8L192,118.4C190.9,117.7 189.7,117.1 188.4,116.6L188,111.5L183.4,110.8L181.4,115.5C180.1,115.6 178.9,115.7 177.6,116.1L174.3,112.3L170.1,114.4L171.2,119.2C170.6,119.7 170,120.2 169.5,120.7C169.1,121.1 168.7,121.5 168.3,122L163.5,120.9L161.4,125.1L165,128.2C164.6,129.6 164.3,131.1 164.3,132.5L160,134.3L160.7,138.9L165.3,139.3C165.8,140.7 166.4,142 167.3,143.3L165,147.2L168.3,150.5L172.1,148.2C173.4,149.1 174.8,149.8 176.2,150.3L176.6,154.7L181.2,155.4L182.9,151.3C184.4,151.2 185.9,151 187.3,150.6L190.2,154L194.4,151.9L193.4,147.4C193.9,147 194.4,146.6 194.9,146.1C195.5,145.5 196,144.9 196.5,144.3L201,145.4L203.1,141.2L199.5,138.1C199.9,136.7 200.1,135.3 200.1,133.8ZM190.7,142C186,146.7 178.3,146.7 173.6,142C168.9,137.3 168.9,129.6 173.6,124.9C178.3,120.2 186,120.2 190.7,124.9C195.5,129.6 195.5,137.3 190.7,142Z" style="fill:rgb(45,115,181);fill-rule:nonzero;"/>
        </g>
    </g>
</svg>
