<svg xmlns="http://www.w3.org/2000/svg" id="Capa_1" xmlns:xlink="http://www.w3.org/1999/xlink" viewBox="0 0 415.3 159">
  <style>
    .st0{fill:#EDEEF0;} .st1{fill:#FED700;} .st2{fill:#56ACDE;} .st3{fill:#E96B00;} .st4{fill:#DA0080;} .st5{clip-path:url(#SVGID_2_);fill:#FFF482;} .st6{fill:none;stroke:#7B8D9B;stroke-width:4.8478;stroke-miterlimit:10;} .st7{fill:#EDEEEF;} .st8{fill:#2D73B5;}
  </style>
  <path d="M415.3,107.1c0,27.9-22.6,50.4-50.4,50.4H50.4C22.6,157.5,0,134.9,0,107.1l0,0c0-27.9,22.6-50.4,50.4-50.4 h314.5C392.8,56.6,415.3,79.2,415.3,107.1L415.3,107.1z" class="st0"/>
  <circle cx="33.3" cy="80.1" r="2.8" class="st1"/>
  <circle cx="58" cy="55.9" r="5.4" class="st2"/>
  <circle cx="41.2" cy="21" r="3.9" class="st3"/>
  <circle cx="60.5" cy="3.8" r="3.8" class="st4"/>
  <defs>
    <path id="SVGID_1_" d="M91.4,103.8c0,21.6-17.5,41.1-39.1,41.1c-21.6,0-39.1-17.5-39.1-39.1c0-2.3-0.6-7.7,0.8-9.6 c1.9-2.6,4,1.2,6.1,2.2c2.2,1,5.3,1,7.6,0.4c3.1-0.9,5.3-2.8,8.7-2.4c2.9,0.3,4.4,2.1,6.7,3.7c4.5,3,7.9,2.3,12.6,0 c4.9-2.4,8.2-4.3,13.2-0.9c4.1,2.8,7.5,2.5,11.9,0.4c2.1-1,4.9-3.1,7.4-2.7C92.3,97.5,91.4,100.7,91.4,103.8z"/>
  </defs>
  <use fill="#FED700" xlink:href="#SVGID_1_" overflow="visible"/>
  <clipPath id="SVGID_2_">
    <use xlink:href="#SVGID_1_" overflow="visible"/>
  </clipPath>
  <path d="M37.9 70.5H41.6V163.3H37.9z" transform="rotate(-27.29 39.792 116.938)" class="st5"/>
  <path d="M44.9 66.7H47.3V159.5H44.9z" transform="rotate(-27.29 46.05 113.1)" class="st5"/>
  <path d="M67.7,64.6v-23H70c2,0,3.7-1.6,3.7-3.7c0-2-1.6-3.7-3.7-3.7H34.5c-2,0-3.7,1.7-3.7,3.7c0,2,1.6,3.7,3.7,3.7 h2.3v23C19.7,70.9,7.5,87.4,7.5,106.7c0,24.7,20.1,44.8,44.8,44.8c24.7,0,44.8-22.1,44.8-46.8C97.1,85.4,84.8,70.9,67.7,64.6z" class="st6"/>
  <path d="M51.5,76.1v8.2h20v47.8H80V84.3h20.5v-8.2H51.5z" class="st7"/>
  <path d="M100.4 74.9l4.9 4.2v10.4h-20v46.7H74.5l-4.1-4.7v-42H55.2l-4.4-4.6v-10H100.4zM52.2 76.3v8h19.6V131H80V84.3h20v-8H52.2zM176 74.9l7.2 2.9 8 12.6 9.5-15.5h10.8l3.8 3.4-16.4 27.4v30.6h-11.4L184 132v-26.3l-20.1-30.8H176zM166.6 76.3l18.8 29V131h8.2v-26.5l16.9-28.2h-9.1l-12.3 20.5-13.3-20.5H166.6zM231.6 74.9l4.8 3.9v42.7h15.8l4.7 4.1v10.7h-31.6l-3.8-4.7V74.9H231.6zM223 76.3V131h28.6v-8.1h-20.6V76.3H223zM289.5 74.5l5.5 2.9 21 59h-12.9l-4.2-3.8-2.9-8.2h-19.8l-4.4 11.9h-9.6l-4.6-4.6 21.8-57.3H289.5zM280.4 75.9l-21 55.1h8.7l4.4-11.7h23.3l4 11.7h8.6l-19.4-55.1H280.4zM293.1 111.7h-17.7l9.2-24L293.1 111.7zM286.4 96.9l-5 13.5h9.6L286.4 96.9zM341.5 74.9c16.4 0 20.1 13 20.1 18.4 0 2.6-.7 5.3-2 7.7-.9 1.5-1.8 2.4-2.9 3.3 2.2 1.5 7.2 5.1 7.2 13.5 0 6-3.6 18.5-21.7 18.5h-15.8l-3.7-4.9V74.9H341.5zM324.1 76.3V131h15c1.6 0 5.7 0 8.6-.6 6.1-1.2 11.4-6.2 11.4-14.2 0-3.3-1-6.9-3.3-9.8-1.4-1.8-2.9-2.6-4.7-3.5 4.4-3.1 5.5-9 5.5-11.9 0-4.7-2.4-11.5-10.2-13.9-2.3-.7-4.4-.9-7.2-.9H324.1zM338.4 83.9c1.8 0 10.4-.9 10.4 8.3 0 7.7-7.7 7.1-8.7 7.1h-7.9V83.9H338.4zM341.3 107.2c1.8 0 9.7 0 9.7 8.6 0 7.5-6.4 7.6-8.8 7.6h-10.1v-16.1H341.3zM337.4 89.2V98h3.1c1.9 0 6.4 0 6.4-4.8 0-3.9-3.5-3.9-5.2-3.9H337.4zM337.4 112.5v9.5h4.6c2.4 0 7.2-.3 7.2-5.1 0-4.4-4.6-4.4-6-4.4H337.4zM399.4 92.5c-1-.4-1.6-.7-7.8-3.6-1.5-.7-2.9-.8-4-.8-2.3 0-5.5.9-5.5 4.2 0 2.4 1.8 3.4 6.9 7.7 8.9 7.7 12.7 10.6 12.7 18.6 0 10.2-8.2 18.4-19 18.4-4.6 0-8.1-1-10.9-1.8l-3.8-6.2v-12c2.1 1.4 6.9 4.7 12.7 4.7 4 0 5.9-1.9 5.9-4.2 0-2.9-3.3-5.3-6.8-8-8.6-6.6-12.3-9.9-12.3-19.2 0-9.7 7-16.5 17.2-16.5 2.3 0 6.2.4 10.3 2.1l4.5 4V92.5zM394 77.4c-2-.7-5-2-9.3-2-8.8 0-15.5 5.5-15.5 13.9 0 5.1 2 9.1 10.5 15.6 4.2 3.3 8.9 6.9 8.9 12.1 0 1.7-.9 6.3-8.1 6.3-5.2 0-8.7-1.9-11.3-3.3v8.4c2 .9 6.4 2.7 12 2.7 9.4 0 15.5-6.8 15.5-14.7 0-7.1-4.3-11.6-9.6-15.7-7.4-5.7-10.2-7.8-10.2-11.4 0-2.2 2.1-6 7.7-6 4.2 0 7.5 1.5 9.4 2.4V77.4z" class="st3"/>
  <circle cx="131.1" cy="106.3" r="15.9" class="st0"/>
  <circle cx="181.6" cy="133.6" r="14.9" class="st0"/>
  <path d="M163.2,104.3l6.5-1.6l-0.7-7l-7.6-0.6c-0.6-1.7-1.4-3.4-2.3-5l5-4.2l-3.7-5.9l-6.9,2.7 c-1.3-1.3-2.7-2.4-4.2-3.4l2.7-5.9l-5.9-3.7l-5.1,5.5c-1.6-0.5-3.3-0.9-4.9-1.2l-0.7-6.4l-7-0.2l-1.3,6.3c-1.8,0.2-3.6,0.6-5.3,1.1 l-3.4-5.4l-6.4,2.9l1.5,6.3c-1.7,1.1-3.4,2.4-4.9,3.8l-4.8-3.7l-5,4.9l4,5.9c-0.9,1.4-1.6,2.9-2.2,4.4l-7-0.8l-1.7,6.8l6.5,3 c-0.2,2-0.2,4,0,5.9l-5.9,1.4l0.7,7l7.2,0.6c0.6,1.5,1.3,3,2.1,4.4l-5,5l4.2,5.5l6.5-3.3c1.4,1.4,3,2.6,4.6,3.7l-2.6,5.7l5.9,3.7 l5-5.4c1.5,0.5,3,0.8,4.5,1.1l0.7,6.5l7,0.2l1.4-6.5c1.8-0.2,3.5-0.6,5.2-1.1l3.4,5.6l6.4-2.9l-1.5-6.4c1.6-1,3.1-2.1,4.5-3.4 l5.3,4.1l5-4.9l-4.3-6.4c0.9-1.5,1.7-3,2.3-4.6l7.1,0.9l1.7-6.8l-6.6-3.1C163.3,107.9,163.3,106.1,163.2,104.3z M139.3,114.8 c-4.7,4.7-12.4,4.7-17.1,0c-4.7-4.7-4.7-12.4,0-17.1c4.7-4.7,12.4-4.7,17.1,0C144,102.4,144,110.1,139.3,114.8z" class="st8"/>
  <path d="M137 100c-3.5-3.5-9-3.5-12.5 0-3.5 3.5-3.5 9 0 12.5 3.5 3.5 9 3.5 12.5 0C140.4 109.1 140.4 103.5 137 100zM135.3 110.8c-2.5 2.5-6.6 2.5-9.1 0-2.5-2.5-2.5-6.6 0-9.1 2.5-2.5 6.6-2.5 9.1 0C137.8 104.2 137.8 108.3 135.3 110.8zM175.9 127.2c-3.5 3.5-3.5 9 0 12.5 3.5 3.5 9 3.5 12.5 0 3.5-3.5 3.5-9 0-12.5C185 123.7 179.4 123.7 175.9 127.2zM186.8 138c-2.5 2.5-6.6 2.5-9.1 0-2.5-2.5-2.5-6.6 0-9.1 2.5-2.5 6.6-2.5 9.1 0C189.3 131.4 189.3 135.5 186.8 138z" class="st8"/>
  <path d="M200.1,133.8l4.5-1.9l-0.7-4.6l-5-0.4c-0.5-1.2-1.1-2.4-1.9-3.5l2.6-4.3l-3.3-3.3l-4.3,2.6 c-1.1-0.7-2.3-1.3-3.6-1.8l-0.4-5.1l-4.6-0.7l-2,4.7c-1.3,0.1-2.5,0.2-3.8,0.6l-3.3-3.8l-4.2,2.1l1.1,4.8c-0.6,0.5-1.2,1-1.7,1.5 c-0.4,0.4-0.8,0.8-1.2,1.3l-4.8-1.1l-2.1,4.2l3.6,3.1c-0.4,1.4-0.7,2.9-0.7,4.3l-4.3,1.8l0.7,4.6l4.6,0.4c0.5,1.4,1.1,2.7,2,4 l-2.3,3.9l3.3,3.3l3.8-2.3c1.3,0.9,2.7,1.6,4.1,2.1l0.4,4.4l4.6,0.7l1.7-4.1c1.5-0.1,3-0.3,4.4-0.7l2.9,3.4l4.2-2.1l-1-4.5 c0.5-0.4,1-0.8,1.5-1.3c0.6-0.6,1.1-1.2,1.6-1.8l4.5,1.1l2.1-4.2l-3.6-3.1C199.9,136.7,200.1,135.3,200.1,133.8z M190.7,142 c-4.7,4.7-12.4,4.7-17.1,0c-4.7-4.7-4.7-12.4,0-17.1c4.7-4.7,12.4-4.7,17.1,0C195.5,129.6,195.5,137.3,190.7,142z" class="st8"/>
</svg>
